<?xml version="1.0" standalone="no"?>
<!DOCTYPE svg PUBLIC "-//W3C//DTD SVG 20010904//EN"
 "http://www.w3.org/TR/2001/REC-SVG-20010904/DTD/svg10.dtd">
<svg version="1.0" xmlns="http://www.w3.org/2000/svg"
 width="360.000000pt" height="360.000000pt" viewBox="0 0 360.000000 360.000000"
 preserveAspectRatio="xMidYMid meet">
<metadata>
Created by potrace 1.14, written by Peter Selinger 2001-2017
</metadata>
<g transform="translate(0.000000,360.000000) scale(0.100000,-0.100000)"
fill="#000000" stroke="none">
<path d="M1600 2537 l-35 -12 -3 -532 -2 -533 37 -24 c21 -14 50 -28 66 -31
l27 -7 0 171 0 171 110 0 110 0 0 -346 0 -347 45 7 c94 12 86 -46 83 569 l-3
542 -45 23 c-82 41 -80 46 -80 -153 l0 -175 -110 0 -110 0 0 345 0 345 -27 -1
c-16 0 -44 -5 -63 -12z"/>
<path d="M1912 2504 c3 -48 4 -48 47 -61 24 -7 52 -15 62 -18 17 -6 19 -1 19
44 0 58 -10 67 -85 78 l-46 6 3 -49z"/>
<path d="M1740 2340 l0 -60 68 0 c139 0 267 -55 358 -153 31 -33 63 -75 72
-94 15 -32 17 -33 79 -33 37 0 63 4 63 10 0 21 -53 116 -92 165 -113 143 -284
225 -467 225 l-81 0 0 -60z"/>
<path d="M1441 2270 c-95 -75 -174 -197 -207 -317 -20 -76 -20 -231 1 -307 68
-253 312 -446 562 -446 l63 0 0 60 0 60 -51 0 c-257 0 -469 217 -469 480 0
128 58 268 144 349 23 22 26 32 26 93 0 37 -4 68 -9 68 -5 0 -32 -18 -60 -40z"/>
<path d="M2239 1568 c-7 -17 -43 -63 -81 -102 l-68 -71 0 -62 c0 -35 2 -63 5
-63 31 0 139 87 193 155 39 49 92 144 92 165 0 6 -27 10 -64 10 -62 0 -64 -1
-77 -32z"/>
<path d="M1560 1136 c0 -63 9 -72 85 -83 l46 -6 -3 54 -3 53 -44 13 c-24 7
-52 15 -62 18 -17 6 -19 0 -19 -49z"/>
</g>
</svg>
